<svg width="89" height="26" viewBox="0 0 89 26" fill="none" xmlns="http://www.w3.org/2000/svg">
<rect y="3" width="20" height="20" rx="10" fill="#F9ECF0"/>
<path fill-rule="evenodd" clip-rule="evenodd" d="M10.0001 15.7411L9.21801 18.0622C8.90086 19.0019 7.79306 19.3253 7.1377 18.6142C6.99868 18.6499 6.85361 18.6542 6.71276 18.6268C6.57192 18.5994 6.43876 18.5409 6.32273 18.4556C6.2067 18.3702 6.11065 18.26 6.04138 18.1329C5.97212 18.0057 5.93134 17.8647 5.92195 17.7198C5.05246 17.3085 5.01215 16.1416 5.79876 15.5461L7.73796 14.0767L5.31586 14.0422C4.33439 14.0277 3.68933 13.0603 4.15386 12.21C4.07756 12.087 4.02885 11.9486 4.01119 11.8045C3.99353 11.6605 4.00734 11.5142 4.05165 11.3761C4.09596 11.238 4.16968 11.1115 4.26762 11.0054C4.36555 10.8994 4.48529 10.8164 4.61839 10.7623C4.73621 9.79767 5.81981 9.39902 6.6221 9.97182L8.60162 11.385L7.88489 9.0421C7.59686 8.09559 8.2997 7.16859 9.24802 7.35726C9.33988 7.24567 9.45485 7.15589 9.58478 7.09428C9.71472 7.03267 9.85644 7.00073 9.99992 7.00073C10.1434 7.00073 10.2851 7.03267 10.4151 7.09428C10.545 7.15589 10.66 7.24567 10.7518 7.35726C11.6992 7.16859 12.4025 8.09559 12.1149 9.0421L11.3982 11.385L13.3777 9.97137C14.18 9.39857 15.2632 9.79721 15.3814 10.7623C15.5146 10.8163 15.6344 10.8992 15.7324 11.0052C15.8303 11.1112 15.9041 11.2377 15.9484 11.3758C15.9927 11.5139 16.0065 11.6601 15.9888 11.8042C15.9711 11.9483 15.9224 12.0866 15.846 12.2095C16.3105 13.0603 15.6668 14.0272 14.684 14.0417L12.2623 14.0767L14.2015 15.5456C14.9872 16.1406 14.9483 17.308 14.0779 17.7194C14.0685 17.8643 14.0277 18.0053 13.9585 18.1324C13.8892 18.2596 13.7931 18.3697 13.6771 18.4551C13.5611 18.5405 13.4279 18.5989 13.2871 18.6263C13.1462 18.6537 13.0012 18.6494 12.8621 18.6137C12.2077 19.3244 11.099 19.0019 10.7818 18.0613L10.0001 15.7411Z" fill="#D21E6A"/>
<path fill-rule="evenodd" clip-rule="evenodd" d="M10.0002 15.7408V7H10.0428C10.1791 7.00594 10.3126 7.04068 10.4348 7.102C10.557 7.16331 10.6652 7.24984 10.7524 7.35602C11.6859 7.17461 12.4053 8.08891 12.1142 9.04086L11.3974 11.3838L13.3769 9.97013C14.1792 9.39733 15.2619 9.79597 15.3807 10.7611C15.5138 10.815 15.6336 10.8979 15.7316 11.0039C15.8295 11.1099 15.9033 11.2365 15.9476 11.3745C15.9919 11.5126 16.0057 11.6589 15.988 11.8029C15.9703 11.947 15.9216 12.0854 15.8452 12.2083C16.3102 13.0591 15.666 14.026 14.6832 14.0405L12.2615 14.0754L14.2007 15.5444C14.9864 16.1394 14.947 17.3068 14.0771 17.7181C14.0677 17.863 14.0269 18.004 13.9577 18.1312C13.8884 18.2583 13.7923 18.3685 13.6763 18.4539C13.5603 18.5392 13.4271 18.5977 13.2863 18.6251C13.1454 18.6525 13.0004 18.6482 12.8613 18.6125C12.2069 19.3236 11.0982 19.0007 10.781 18.0601L10.0002 15.7408Z" fill="#E7629A"/>
<path d="M10.9037 14.2317C11.4031 13.7261 11.4031 12.9062 10.9037 12.4006C10.4042 11.8949 9.59445 11.8949 9.095 12.4006C8.59556 12.9062 8.59556 13.7261 9.095 14.2317C9.59445 14.7374 10.4042 14.7374 10.9037 14.2317Z" fill="#FFDA44"/>
<path fill-rule="evenodd" clip-rule="evenodd" d="M9.99951 12.021C10.3346 12.0273 10.6539 12.1666 10.8886 12.4088C11.1234 12.6509 11.2549 12.9767 11.2549 13.316C11.2549 13.6554 11.1234 13.9811 10.8886 14.2233C10.6539 14.4655 10.3346 14.6047 9.99951 14.6111V12.021Z" fill="#FFB655"/>
<path d="M31.0156 6.70312L30.5371 6.20508C30.3743 6.06185 30.2214 5.94466 30.0781 5.85352C29.9414 5.76237 29.8047 5.69076 29.668 5.63867C29.5312 5.58008 29.3913 5.54102 29.248 5.52148C29.1113 5.50195 28.9583 5.49219 28.7891 5.49219C28.7305 5.49219 28.6947 5.4987 28.6816 5.51172C28.5059 5.51172 28.3659 5.51172 28.2617 5.51172C28.1641 5.51172 28.0892 5.51172 28.0371 5.51172C27.985 5.51172 27.9492 5.51497 27.9297 5.52148C27.9167 5.52148 27.9102 5.52148 27.9102 5.52148H27.1582C27.0475 5.55404 26.9336 5.57357 26.8164 5.58008C26.6992 5.58659 26.5853 5.58984 26.4746 5.58984C26.2272 5.58984 26.0384 5.5931 25.9082 5.59961C25.7845 5.60612 25.6836 5.63216 25.6055 5.67773C25.5339 5.70378 25.4915 5.73958 25.4785 5.78516C25.4655 5.82422 25.459 5.86003 25.459 5.89258C25.459 6.0293 25.4395 6.13021 25.4004 6.19531C25.3678 6.25391 25.2962 6.31901 25.1855 6.39062C25.166 6.40365 25.1497 6.4362 25.1367 6.48828C25.1302 6.54036 25.1204 6.59896 25.1074 6.66406C25.1009 6.72917 25.0944 6.79427 25.0879 6.85938C25.0879 6.92448 25.0879 6.97656 25.0879 7.01562C25.0879 7.16536 25.1107 7.30859 25.1562 7.44531C25.2018 7.58203 25.2246 7.73503 25.2246 7.9043L25.1367 8.51953C25.1367 8.66927 25.1693 8.81901 25.2344 8.96875C25.306 9.11849 25.3418 9.28125 25.3418 9.45703L25.1855 10.9121C25.1855 10.9707 25.2116 11.0391 25.2637 11.1172C25.3158 11.1888 25.3581 11.2441 25.3906 11.2832C25.5924 11.3092 25.7975 11.3483 26.0059 11.4004C26.2142 11.446 26.4193 11.4688 26.6211 11.4688C26.6667 11.4688 26.7057 11.4655 26.7383 11.459C26.7773 11.446 26.8132 11.4036 26.8457 11.332C26.9173 11.3255 27.002 11.319 27.0996 11.3125C27.2038 11.306 27.321 11.3027 27.4512 11.3027C27.627 11.3027 27.8158 11.3027 28.0176 11.3027C28.2194 11.2962 28.418 11.2865 28.6133 11.2734C28.8086 11.2539 28.9876 11.2279 29.1504 11.1953C29.3132 11.1562 29.4401 11.1009 29.5312 11.0293C29.6224 10.9707 29.6908 10.8861 29.7363 10.7754C29.7884 10.6647 29.8275 10.5475 29.8535 10.4238C29.8796 10.2936 29.9023 10.1634 29.9219 10.0332C29.9414 9.90299 29.9674 9.78581 30 9.68164C30.0391 9.57096 30.0911 9.48307 30.1562 9.41797C30.2279 9.34635 30.3288 9.31055 30.459 9.31055C30.498 9.31055 30.5339 9.31706 30.5664 9.33008C30.6055 9.3431 30.6413 9.38542 30.6738 9.45703V9.86719C30.6738 10.1797 30.6413 10.4792 30.5762 10.7656C30.5436 10.9935 30.5111 11.2018 30.4785 11.3906C30.4525 11.5729 30.4395 11.7585 30.4395 11.9473C30.4395 12.11 30.4622 12.2695 30.5078 12.4258C30.5599 12.5755 30.612 12.7253 30.6641 12.875C30.7227 13.0182 30.7747 13.1647 30.8203 13.3145C30.8724 13.4642 30.8984 13.6172 30.8984 13.7734C30.8984 13.8711 30.8952 13.946 30.8887 13.998C30.8887 14.0436 30.8757 14.0729 30.8496 14.0859C30.8171 14.138 30.7943 14.1771 30.7812 14.2031C30.7682 14.2292 30.7324 14.2422 30.6738 14.2422C30.5762 14.2422 30.5013 14.2064 30.4492 14.1348C30.4036 14.0632 30.3451 13.9915 30.2734 13.9199L30.1367 13.6172C30.0651 13.4609 29.9967 13.3112 29.9316 13.168C29.8665 13.0247 29.7884 12.8913 29.6973 12.7676C29.6126 12.6374 29.5117 12.5169 29.3945 12.4062C29.2839 12.2891 29.1471 12.1849 28.9844 12.0938H28.5449C28.3171 12.0938 28.0827 12.0905 27.8418 12.084C27.6009 12.071 27.3926 12.0482 27.2168 12.0156L26.6211 11.9082C26.4518 11.9082 26.2663 11.9375 26.0645 11.9961C25.8691 12.0547 25.6836 12.0872 25.5078 12.0938C25.4492 12.1654 25.3809 12.2565 25.3027 12.3672C25.2246 12.4714 25.1855 12.5853 25.1855 12.709C25.2897 13.1908 25.3776 13.666 25.4492 14.1348C25.5208 14.597 25.5566 15.0625 25.5566 15.5312C25.5566 15.7526 25.5501 15.9023 25.5371 15.9805C25.5306 16.0521 25.5208 16.1107 25.5078 16.1562C25.5599 16.3125 25.6315 16.4525 25.7227 16.5762C25.8203 16.6934 25.931 16.8008 26.0547 16.8984C26.1784 16.9896 26.3086 17.0742 26.4453 17.1523C26.582 17.2305 26.7155 17.3021 26.8457 17.3672C26.8522 17.3672 26.8717 17.3867 26.9043 17.4258C26.9434 17.4648 26.9629 17.4909 26.9629 17.5039C26.9889 17.5169 27.0475 17.5299 27.1387 17.543C27.2298 17.5495 27.2884 17.5527 27.3145 17.5527C27.3665 17.5527 27.4089 17.5527 27.4414 17.5527C27.4805 17.5527 27.5228 17.5462 27.5684 17.5332C27.6204 17.5267 27.6628 17.5234 27.6953 17.5234C27.7344 17.5234 27.7767 17.5234 27.8223 17.5234C27.8678 17.5234 27.9167 17.5234 27.9688 17.5234C28.0208 17.5234 28.0664 17.5267 28.1055 17.5332C28.151 17.5462 28.1934 17.5527 28.2324 17.5527C28.278 17.5527 28.3203 17.5527 28.3594 17.5527C28.3919 17.5853 28.431 17.6178 28.4766 17.6504C28.5286 17.6829 28.5742 17.722 28.6133 17.7676C28.6589 17.8132 28.6947 17.862 28.7207 17.9141C28.7533 17.9661 28.7695 18.0247 28.7695 18.0898C28.7695 18.1615 28.7533 18.2363 28.7207 18.3145C28.6882 18.3861 28.6426 18.4544 28.584 18.5195C28.5319 18.5911 28.4733 18.6465 28.4082 18.6855C28.3431 18.7311 28.278 18.7539 28.2129 18.7539H28.1934C28.1217 18.7669 28.0404 18.7734 27.9492 18.7734C27.8646 18.7799 27.7897 18.7832 27.7246 18.7832C27.6335 18.7832 27.5456 18.7799 27.4609 18.7734C27.3828 18.7734 27.2786 18.7669 27.1484 18.7539L26.9629 18.7051C26.8522 18.6465 26.7285 18.5944 26.5918 18.5488C26.4551 18.5033 26.3118 18.4642 26.1621 18.4316C26.0189 18.3991 25.8724 18.3763 25.7227 18.3633C25.5794 18.3438 25.446 18.334 25.3223 18.334C25.1855 18.334 25.0684 18.3405 24.9707 18.3535C24.873 18.36 24.7428 18.3861 24.5801 18.4316C24.4303 18.4577 24.2741 18.4772 24.1113 18.4902C23.9551 18.4967 23.8021 18.5 23.6523 18.5C23.4831 18.5 23.3236 18.4967 23.1738 18.4902C23.0306 18.4772 22.8743 18.4577 22.7051 18.4316C22.627 18.4577 22.5521 18.5 22.4805 18.5586C22.4154 18.6172 22.3275 18.6595 22.2168 18.6855C22.1712 18.6725 22.1289 18.6595 22.0898 18.6465C22.0573 18.64 22.0182 18.6367 21.9727 18.6367C21.9401 18.6497 21.8913 18.6562 21.8262 18.6562H21.4551C21.3053 18.6042 21.1816 18.5521 21.084 18.5C20.9928 18.4479 20.9245 18.347 20.8789 18.1973C20.8789 17.9889 20.9863 17.8132 21.2012 17.6699C21.3574 17.6569 21.5592 17.6146 21.8066 17.543C22.0605 17.4714 22.3047 17.377 22.5391 17.2598C22.7734 17.1426 22.9753 17.0026 23.1445 16.8398C23.3203 16.6771 23.4082 16.498 23.4082 16.3027C23.4082 15.9577 23.3984 15.6615 23.3789 15.4141C23.3659 15.1602 23.3464 14.916 23.3203 14.6816C23.3008 14.4473 23.2812 14.2031 23.2617 13.9492C23.2487 13.6888 23.2422 13.3763 23.2422 13.0117C23.2422 12.901 23.252 12.7936 23.2715 12.6895C23.2975 12.5788 23.3203 12.4714 23.3398 12.3672C23.3659 12.2565 23.3887 12.1491 23.4082 12.0449C23.4342 11.9342 23.4473 11.8236 23.4473 11.7129C23.4473 11.6934 23.444 11.6673 23.4375 11.6348C23.4375 11.6022 23.4375 11.5697 23.4375 11.5371C23.4375 11.498 23.4342 11.4655 23.4277 11.4395C23.4277 11.4069 23.4277 11.3906 23.4277 11.3906L23.3105 10.9609V10.209C23.3105 10.0983 23.2975 9.98763 23.2715 9.87695C23.2454 9.76628 23.2161 9.6556 23.1836 9.54492C23.1576 9.43424 23.1315 9.32682 23.1055 9.22266C23.0859 9.11198 23.0762 9.00456 23.0762 8.90039C23.0762 8.87435 23.0794 8.83203 23.0859 8.77344C23.099 8.70833 23.112 8.66276 23.125 8.63672C23.151 8.50651 23.1706 8.3763 23.1836 8.24609C23.2031 8.10938 23.2129 7.97266 23.2129 7.83594C23.2129 7.70573 23.2064 7.57878 23.1934 7.45508C23.1803 7.32487 23.1576 7.19466 23.125 7.06445C23.125 6.94727 23.0957 6.83333 23.0371 6.72266C22.985 6.60547 22.9134 6.49479 22.8223 6.39062C22.7376 6.28646 22.6432 6.19531 22.5391 6.11719C22.4349 6.03255 22.3372 5.9707 22.2461 5.93164C22.1289 5.88607 21.9694 5.85677 21.7676 5.84375C21.5658 5.83073 21.3639 5.80794 21.1621 5.77539C20.9603 5.73633 20.7845 5.67448 20.6348 5.58984C20.4915 5.4987 20.4199 5.35221 20.4199 5.15039V5.00391C20.5241 4.94531 20.651 4.88672 20.8008 4.82812C20.957 4.76302 21.0905 4.73047 21.2012 4.73047H21.4355C21.5267 4.73047 21.6146 4.74023 21.6992 4.75977C21.7904 4.7793 21.8652 4.82487 21.9238 4.89648C22.0345 4.91602 22.1452 4.93229 22.2559 4.94531C22.3665 4.95833 22.4772 4.96484 22.5879 4.96484C22.6855 4.96484 22.793 4.95833 22.9102 4.94531C23.0273 4.93229 23.1445 4.91602 23.2617 4.89648C23.2943 4.8444 23.3171 4.8151 23.3301 4.80859C23.3496 4.80208 23.3822 4.79883 23.4277 4.79883C23.5645 4.79883 23.6979 4.82487 23.8281 4.87695C23.9583 4.92904 24.1081 4.95508 24.2773 4.95508H24.4922C24.5638 4.95508 24.6387 4.95508 24.7168 4.95508C24.7949 4.94857 24.8796 4.92904 24.9707 4.89648C25.2051 4.93555 25.4622 4.95508 25.7422 4.95508C26.0026 4.95508 26.2663 4.93555 26.5332 4.89648C26.7741 4.81185 27.028 4.76953 27.2949 4.76953C27.5684 4.76953 27.8516 4.75651 28.1445 4.73047C28.2943 4.71745 28.4342 4.70768 28.5645 4.70117C28.7012 4.68815 28.8379 4.68164 28.9746 4.68164C29.0723 4.68164 29.1732 4.68815 29.2773 4.70117C29.3815 4.70768 29.4889 4.71745 29.5996 4.73047C29.6257 4.74349 29.6582 4.76628 29.6973 4.79883C29.7428 4.82487 29.7852 4.85417 29.8242 4.88672C29.8698 4.91927 29.9121 4.94857 29.9512 4.97461C29.9902 4.99414 30.0195 5.00391 30.0391 5.00391C30.0977 5.00391 30.1465 4.99414 30.1855 4.97461C30.2311 4.95508 30.2865 4.92904 30.3516 4.89648C30.4557 4.87044 30.5632 4.85417 30.6738 4.84766C30.7845 4.83464 30.8984 4.82812 31.0156 4.82812C31.2174 4.82812 31.4193 4.85091 31.6211 4.89648C31.6341 4.89648 31.6634 4.91927 31.709 4.96484C31.7611 5.00391 31.8132 5.04948 31.8652 5.10156C31.9238 5.14714 31.9759 5.19271 32.0215 5.23828C32.0671 5.27734 32.0931 5.30013 32.0996 5.30664V6.70312C32.2298 7.02214 32.2949 7.3444 32.2949 7.66992C32.2949 7.74805 32.2917 7.82943 32.2852 7.91406C32.2852 7.99219 32.2721 8.06706 32.2461 8.13867C32.2266 8.21029 32.1908 8.26888 32.1387 8.31445C32.0866 8.36003 32.015 8.38281 31.9238 8.38281C31.8848 8.33724 31.8392 8.2819 31.7871 8.2168C31.735 8.15169 31.6797 8.08659 31.6211 8.02148C31.569 7.94987 31.5169 7.88151 31.4648 7.81641C31.4193 7.7513 31.3802 7.69271 31.3477 7.64062C31.3477 7.6276 31.3346 7.5918 31.3086 7.5332C31.2826 7.4681 31.2533 7.40299 31.2207 7.33789C31.1882 7.26628 31.1556 7.20117 31.123 7.14258C31.097 7.07747 31.0775 7.03516 31.0645 7.01562C31.0514 7.0026 31.0384 6.95052 31.0254 6.85938C31.0189 6.76823 31.0156 6.71615 31.0156 6.70312ZM33.252 18.5684C33.2324 18.5684 33.2096 18.5684 33.1836 18.5684C33.1576 18.5684 33.1283 18.5618 33.0957 18.5488H32.8906L32.7734 18.4512V17.9922L32.998 17.6406C33.0566 17.6146 33.125 17.6016 33.2031 17.6016C33.2812 17.5951 33.3236 17.5918 33.3301 17.5918C33.3561 17.5918 33.4147 17.5885 33.5059 17.582C33.6035 17.569 33.6816 17.5495 33.7402 17.5234C33.89 17.556 33.9974 17.5723 34.0625 17.5723C34.1406 17.5137 34.2155 17.4355 34.2871 17.3379C34.3587 17.2402 34.4206 17.1328 34.4727 17.0156C34.5312 16.8984 34.5736 16.7812 34.5996 16.6641C34.6322 16.5469 34.6484 16.4395 34.6484 16.3418V15.2578C34.6484 15.0299 34.6484 14.8086 34.6484 14.5938C34.6549 14.3724 34.668 14.2161 34.6875 14.125C34.668 13.9492 34.6549 13.7767 34.6484 13.6074C34.6419 13.4316 34.6322 13.2559 34.6191 13.0801L34.5508 12.0645C34.5312 11.7585 34.515 11.4525 34.502 11.1465C34.4889 10.8405 34.4824 10.5312 34.4824 10.2188C34.4824 10.1862 34.4857 10.1634 34.4922 10.1504C34.4987 10.1309 34.528 10.1048 34.5801 10.0723C34.554 9.9681 34.5378 9.8737 34.5312 9.78906C34.5312 9.70443 34.5312 9.61328 34.5312 9.51562C34.5312 9.42448 34.5312 9.33333 34.5312 9.24219C34.5378 9.14453 34.554 9.04362 34.5801 8.93945C34.528 8.9069 34.4857 8.85807 34.4531 8.79297C34.4271 8.72786 34.4141 8.63997 34.4141 8.5293C34.4141 8.44466 34.4401 8.3763 34.4922 8.32422C34.5443 8.27214 34.5703 8.19401 34.5703 8.08984C34.5703 7.94661 34.5671 7.79362 34.5605 7.63086C34.554 7.4681 34.528 7.30208 34.4824 7.13281C34.4368 6.90495 34.4141 6.72266 34.4141 6.58594C34.4141 6.44922 34.4076 6.30273 34.3945 6.14648C34.3555 6.08789 34.2871 6.0293 34.1895 5.9707C34.0983 5.91211 33.9974 5.85352 33.8867 5.79492C33.7826 5.72982 33.6816 5.66471 33.584 5.59961C33.4863 5.52799 33.418 5.45312 33.3789 5.375C33.3268 5.27083 33.291 5.20898 33.2715 5.18945C33.2585 5.16341 33.2454 5.13411 33.2324 5.10156C33.2324 5.05599 33.2454 4.99089 33.2715 4.90625C33.2975 4.8151 33.3464 4.76302 33.418 4.75C33.5547 4.71745 33.6947 4.67839 33.8379 4.63281C33.9811 4.58724 34.0885 4.55794 34.1602 4.54492C34.1732 4.54492 34.2057 4.53516 34.2578 4.51562C34.3164 4.48958 34.375 4.46354 34.4336 4.4375C34.4987 4.40495 34.5573 4.37565 34.6094 4.34961C34.668 4.31706 34.7038 4.29102 34.7168 4.27148C34.8405 4.23893 34.9544 4.20312 35.0586 4.16406C35.1693 4.125 35.2767 4.08919 35.3809 4.05664C35.485 4.02409 35.5924 3.99479 35.7031 3.96875C35.8203 3.94271 35.944 3.92643 36.0742 3.91992C36.1393 3.91992 36.1947 3.92318 36.2402 3.92969C36.2858 3.9362 36.3086 3.96224 36.3086 4.00781C36.3346 4.17708 36.3509 4.3431 36.3574 4.50586C36.3704 4.66211 36.377 4.8151 36.377 4.96484C36.377 5.11458 36.3704 5.26758 36.3574 5.42383C36.3509 5.57357 36.3346 5.72005 36.3086 5.86328C36.2565 6 36.224 6.14648 36.2109 6.30273C36.1979 6.45898 36.1914 6.61523 36.1914 6.77148L36.2012 7.2793L36.1719 7.95312C36.1979 8.00521 36.2142 8.05729 36.2207 8.10938C36.2337 8.16146 36.2402 8.22982 36.2402 8.31445C36.2402 8.44466 36.237 8.53906 36.2305 8.59766C36.2305 8.65625 36.2207 8.70182 36.2012 8.73438L36.2695 9.35938C36.2435 9.46354 36.2012 9.57096 36.1426 9.68164C36.084 9.78581 36.0384 9.90299 36.0059 10.0332C36.0059 10.1048 36.0221 10.1699 36.0547 10.2285C36.0872 10.2806 36.11 10.3522 36.123 10.4434C36.1491 10.6973 36.1621 10.9414 36.1621 11.1758C36.1686 11.4102 36.1784 11.6543 36.1914 11.9082C36.1589 12.0579 36.1198 12.1914 36.0742 12.3086C36.0352 12.4193 36.0156 12.5332 36.0156 12.6504V12.8066C36.0221 12.9434 36.0319 13.0703 36.0449 13.1875C36.0579 13.2982 36.071 13.4089 36.084 13.5195C36.1035 13.6302 36.1198 13.7474 36.1328 13.8711C36.1458 13.9883 36.1589 14.125 36.1719 14.2812C36.1719 14.4505 36.1621 14.597 36.1426 14.7207C36.1296 14.8444 36.1165 14.9941 36.1035 15.1699C36.097 15.209 36.0872 15.2643 36.0742 15.3359C36.0677 15.4076 36.0579 15.4824 36.0449 15.5605C36.0384 15.6322 36.0319 15.7005 36.0254 15.7656C36.0189 15.8307 36.0156 15.8763 36.0156 15.9023V15.9121C36.0221 15.9447 36.0352 16.0098 36.0547 16.1074C36.0742 16.2051 36.0938 16.306 36.1133 16.4102C36.1328 16.5143 36.1523 16.612 36.1719 16.7031C36.1914 16.7943 36.2012 16.8529 36.2012 16.8789L36.2695 17.0254H36.2891C36.3086 17.0254 36.3216 17.0352 36.3281 17.0547C36.3346 17.0742 36.3444 17.0872 36.3574 17.0938C36.3835 17.1198 36.3997 17.1491 36.4062 17.1816C36.4128 17.2077 36.4258 17.237 36.4453 17.2695C36.4714 17.2956 36.5072 17.3249 36.5527 17.3574C36.6048 17.3835 36.6862 17.4095 36.7969 17.4355C36.9206 17.5137 37.015 17.5527 37.0801 17.5527C37.0996 17.5527 37.1159 17.5527 37.1289 17.5527C37.1419 17.5527 37.1647 17.5462 37.1973 17.5332C37.2493 17.5462 37.3112 17.556 37.3828 17.5625C37.4544 17.569 37.5293 17.582 37.6074 17.6016C37.6855 17.6146 37.7637 17.6374 37.8418 17.6699C37.9199 17.7025 37.9883 17.748 38.0469 17.8066C38.0794 17.8327 38.099 17.8685 38.1055 17.9141C38.112 17.9531 38.1152 18.0085 38.1152 18.0801V18.4121C38.1152 18.4577 38.1087 18.5 38.0957 18.5391C38.0827 18.5781 38.0566 18.6042 38.0176 18.6172C37.9655 18.6042 37.9102 18.5977 37.8516 18.5977C37.7995 18.5977 37.7474 18.5977 37.6953 18.5977C37.6497 18.5977 37.6009 18.5944 37.5488 18.5879C37.4967 18.5879 37.4316 18.5814 37.3535 18.5684L37.0508 18.5293C37.0378 18.5293 37.0085 18.526 36.9629 18.5195C36.9238 18.5195 36.8783 18.5163 36.8262 18.5098C36.7806 18.5098 36.735 18.5065 36.6895 18.5C36.6504 18.5 36.6243 18.5 36.6113 18.5L36.1328 18.4707C36.1263 18.4707 36.1198 18.4674 36.1133 18.4609C36.1068 18.4609 36.1003 18.4609 36.0938 18.4609C36.0938 18.4544 36.0905 18.4512 36.084 18.4512C35.9408 18.4577 35.8105 18.4674 35.6934 18.4805C35.5827 18.4935 35.4753 18.5065 35.3711 18.5195C35.2734 18.5391 35.1725 18.5553 35.0684 18.5684C34.9707 18.5879 34.86 18.5977 34.7363 18.5977C34.5866 18.5846 34.4238 18.5684 34.248 18.5488C34.0788 18.5293 33.9193 18.5195 33.7695 18.5195L33.252 18.5684ZM38.7988 13.334C38.89 12.9889 39.0039 12.6602 39.1406 12.3477C39.2773 12.0286 39.4336 11.7031 39.6094 11.3711L39.8828 11.0488L40 10.8438C40.0195 10.8112 40.0423 10.7819 40.0684 10.7559C40.0879 10.7298 40.1074 10.707 40.127 10.6875C40.1465 10.6615 40.166 10.6419 40.1855 10.6289L40.7617 10.2188C40.7943 10.1797 40.8301 10.1536 40.8691 10.1406C40.9082 10.1211 40.944 10.1081 40.9766 10.1016C41.0156 10.0885 41.0547 10.0788 41.0938 10.0723C41.1328 10.0592 41.1686 10.0365 41.2012 10.0039L41.3867 9.81836L41.543 9.75H41.6895L42.2168 9.54492C42.2428 9.5319 42.2786 9.51888 42.3242 9.50586C42.3763 9.49284 42.4284 9.47982 42.4805 9.4668C42.5326 9.45378 42.5814 9.44401 42.627 9.4375C42.6725 9.43099 42.7051 9.42773 42.7246 9.42773H43.7207C43.7793 9.40169 43.8281 9.38867 43.8672 9.38867C43.9128 9.38216 43.9486 9.37891 43.9746 9.37891C44.1634 9.37891 44.3522 9.41146 44.541 9.47656C44.7298 9.53516 44.9186 9.59049 45.1074 9.64258H45.4785C45.4915 9.64258 45.5111 9.6556 45.5371 9.68164C45.5632 9.70117 45.5924 9.72721 45.625 9.75977L45.7324 9.86719C45.8952 9.95833 46.0547 10.0495 46.2109 10.1406C46.3672 10.2253 46.5234 10.3197 46.6797 10.4238C46.8099 10.528 46.9108 10.6452 46.9824 10.7754C47.0605 10.8991 47.1484 11.0228 47.2461 11.1465C47.2591 11.1595 47.2819 11.1921 47.3145 11.2441C47.3535 11.2897 47.3926 11.3418 47.4316 11.4004C47.4707 11.459 47.5065 11.5176 47.5391 11.5762C47.5781 11.6348 47.6042 11.6803 47.6172 11.7129L47.6758 11.8301L48.0566 13.0801C48.0762 13.1191 48.0924 13.1647 48.1055 13.2168C48.1185 13.2689 48.1315 13.321 48.1445 13.373C48.1576 13.4186 48.1673 13.4642 48.1738 13.5098C48.1803 13.5488 48.1836 13.5749 48.1836 13.5879V13.9004L48.125 14.1445V14.8477L47.6172 16.3418C47.487 16.5176 47.3503 16.6999 47.207 16.8887C47.0638 17.071 46.9206 17.2435 46.7773 17.4062C46.7773 17.4128 46.7643 17.429 46.7383 17.4551C46.6992 17.5072 46.6536 17.5625 46.6016 17.6211C46.5495 17.6797 46.4909 17.735 46.4258 17.7871C46.4128 17.8001 46.3737 17.8099 46.3086 17.8164C46.25 17.8229 46.1849 17.8424 46.1133 17.875L45.5273 18.2168C45.5143 18.2168 45.485 18.2233 45.4395 18.2363C45.4004 18.2428 45.3548 18.2526 45.3027 18.2656C45.2572 18.2721 45.2116 18.2786 45.166 18.2852C45.1204 18.2917 45.0879 18.2949 45.0684 18.2949C44.9512 18.321 44.8535 18.3568 44.7754 18.4023C44.7038 18.4479 44.5996 18.4707 44.4629 18.4707L43.4668 18.5C43.4408 18.5 43.3854 18.5 43.3008 18.5C43.2161 18.4935 43.125 18.4902 43.0273 18.4902C42.9297 18.4837 42.8353 18.4805 42.7441 18.4805C42.653 18.474 42.5846 18.4707 42.5391 18.4707L42.2656 18.4121L41.6406 18.3633L41.543 18.3145L40.5762 17.6406L40.3418 17.5332C40.2246 17.4681 40.127 17.3737 40.0488 17.25C39.9707 17.1198 39.8926 16.9961 39.8145 16.8789C39.7428 16.7487 39.668 16.6315 39.5898 16.5273C39.5182 16.4232 39.4466 16.3255 39.375 16.2344C39.3164 16.1302 39.2513 16.0293 39.1797 15.9316C39.1146 15.834 39.0527 15.7331 38.9941 15.6289C38.9421 15.5247 38.8965 15.4206 38.8574 15.3164C38.8184 15.2057 38.7988 15.0853 38.7988 14.9551L38.7207 14.1934L38.7988 13.334ZM40.8105 14.7109C40.8626 14.7695 40.8984 14.8216 40.918 14.8672C40.944 14.9128 40.9603 14.9551 40.9668 14.9941C40.9798 15.0332 40.9863 15.0755 40.9863 15.1211C40.9928 15.1667 41.0026 15.222 41.0156 15.2871C41.0677 15.502 41.1523 15.7266 41.2695 15.9609C41.3867 16.1953 41.5104 16.3939 41.6406 16.5566L42.0117 16.9082C42.1419 17.071 42.2656 17.2337 42.3828 17.3965C42.5 17.5527 42.6465 17.6667 42.8223 17.7383H43.2129C43.3561 17.7383 43.5091 17.722 43.6719 17.6895C43.8346 17.6504 43.9974 17.6178 44.1602 17.5918C44.2513 17.5918 44.3327 17.5885 44.4043 17.582C44.4759 17.569 44.5638 17.5299 44.668 17.4648L44.7852 17.3379C45.0977 17.1686 45.3678 16.9603 45.5957 16.7129L46.2695 15.6484L46.2402 14.6328C46.2728 14.5807 46.2923 14.5319 46.2988 14.4863C46.3053 14.4408 46.3086 14.3724 46.3086 14.2812C46.3086 14.1706 46.2826 14.0697 46.2305 13.9785C46.1784 13.8874 46.1523 13.7767 46.1523 13.6465L46.2402 13.2754C46.2207 13.1973 46.2012 13.1061 46.1816 13.002C46.1621 12.8978 46.1393 12.7936 46.1133 12.6895C46.0938 12.5788 46.0677 12.4779 46.0352 12.3867C46.0091 12.2891 45.9733 12.2109 45.9277 12.1523L45.4297 11.5762C45.4102 11.5632 45.3841 11.5339 45.3516 11.4883C45.3255 11.4427 45.2962 11.3906 45.2637 11.332C45.2376 11.2734 45.2116 11.2181 45.1855 11.166C45.166 11.1139 45.1562 11.0749 45.1562 11.0488L44.8633 10.8438C44.7461 10.7135 44.6289 10.6029 44.5117 10.5117C44.3945 10.4141 44.2546 10.3522 44.0918 10.3262L43.6133 10.2676C43.444 10.2415 43.2943 10.2122 43.1641 10.1797C43.0339 10.1406 42.8874 10.1211 42.7246 10.1211H42.6562L42.0605 10.4727L41.1133 11.5762C41.0872 11.6478 41.0645 11.7129 41.0449 11.7715C41.0254 11.8301 41.0156 11.8887 41.0156 11.9473L40.9668 12.25L40.8105 12.6504V12.9043C40.8105 12.9954 40.8236 13.0801 40.8496 13.1582C40.8822 13.2363 40.8984 13.3275 40.8984 13.4316C40.8984 13.4837 40.8952 13.526 40.8887 13.5586C40.8822 13.5846 40.8561 13.6139 40.8105 13.6465V14.7109ZM52.1289 17.0449C51.9857 16.8301 51.888 16.625 51.8359 16.4297C51.7839 16.2279 51.7415 16.0293 51.709 15.834C51.6764 15.6387 51.6309 15.4466 51.5723 15.2578C51.5202 15.0625 51.416 14.8639 51.2598 14.6621L51.0645 13.8418V13.4609C51.0645 13.4609 51.0547 13.4447 51.0352 13.4121C51.0156 13.373 50.9896 13.3307 50.957 13.2852C50.931 13.2331 50.9049 13.1842 50.8789 13.1387C50.8529 13.0931 50.8333 13.0605 50.8203 13.041L50.625 12.7871V12.2793C50.625 12.2598 50.612 12.2305 50.5859 12.1914C50.5664 12.1458 50.5404 12.1003 50.5078 12.0547C50.4818 12.0026 50.4557 11.957 50.4297 11.918C50.4036 11.8789 50.3874 11.8529 50.3809 11.8398C50.2897 11.6836 50.2181 11.5078 50.166 11.3125C50.1139 11.1107 50.0521 10.9284 49.9805 10.7656C49.9414 10.681 49.9056 10.6191 49.873 10.5801C49.8405 10.5345 49.7949 10.502 49.7363 10.4824C49.6842 10.4564 49.6126 10.4401 49.5215 10.4336C49.4368 10.4206 49.3197 10.401 49.1699 10.375C49.0658 10.3555 48.9779 10.3262 48.9062 10.2871C48.8346 10.2415 48.7988 10.1732 48.7988 10.082C48.7988 9.95182 48.8249 9.83789 48.877 9.74023C48.9355 9.64258 48.9941 9.54818 49.0527 9.45703L49.5605 9.35938H49.7559C49.9447 9.43099 50.1432 9.48633 50.3516 9.52539C50.5599 9.56445 50.7617 9.58398 50.957 9.58398C51.1198 9.58398 51.263 9.5612 51.3867 9.51562C51.5169 9.47005 51.6569 9.44727 51.8066 9.44727C51.8262 9.44727 51.8587 9.45052 51.9043 9.45703C51.9564 9.45703 52.0117 9.46029 52.0703 9.4668C52.1289 9.47331 52.181 9.47982 52.2266 9.48633C52.2721 9.48633 52.3014 9.48958 52.3145 9.49609C52.347 9.52214 52.3828 9.54492 52.4219 9.56445C52.4674 9.57747 52.5098 9.59701 52.5488 9.62305C52.5879 9.64258 52.6204 9.66862 52.6465 9.70117C52.6725 9.72721 52.6855 9.76628 52.6855 9.81836C52.6855 9.88997 52.6693 9.97786 52.6367 10.082C52.6042 10.1797 52.5586 10.2708 52.5 10.3555C52.4544 10.4076 52.3796 10.4596 52.2754 10.5117C52.1712 10.5573 52.1029 10.6061 52.0703 10.6582V10.8633L52.0898 10.9805C52.0964 11.0586 52.1094 11.1497 52.1289 11.2539C52.1484 11.3581 52.168 11.4655 52.1875 11.5762C52.207 11.6803 52.2266 11.778 52.2461 11.8691C52.2721 11.9603 52.2949 12.0254 52.3145 12.0645L52.5098 12.2793C52.5684 12.403 52.6139 12.5365 52.6465 12.6797C52.6855 12.8164 52.7148 12.9564 52.7344 13.0996C52.7604 13.2363 52.7832 13.3763 52.8027 13.5195C52.8223 13.6628 52.8483 13.7962 52.8809 13.9199L53.2031 14.4961C53.2227 14.5417 53.2389 14.6068 53.252 14.6914C53.265 14.776 53.2812 14.8607 53.3008 14.9453C53.3268 15.0234 53.3594 15.0918 53.3984 15.1504C53.4375 15.209 53.4928 15.2383 53.5645 15.2383C53.6426 15.2383 53.7077 15.209 53.7598 15.1504C53.8184 15.0918 53.8672 15.0234 53.9062 14.9453C53.9518 14.8672 53.9876 14.7891 54.0137 14.7109C54.0462 14.6328 54.0755 14.5775 54.1016 14.5449C54.1016 14.5319 54.1276 14.4993 54.1797 14.4473C54.2318 14.3887 54.2676 14.3529 54.2871 14.3398C54.3717 14.2357 54.4303 14.1152 54.4629 13.9785C54.4954 13.8353 54.528 13.6953 54.5605 13.5586C54.5931 13.4154 54.6354 13.2786 54.6875 13.1484C54.7461 13.0182 54.8438 12.9141 54.9805 12.8359L55 12.4355C55 12.4095 54.9967 12.3737 54.9902 12.3281C54.9902 12.276 54.9902 12.2305 54.9902 12.1914C54.9902 12.1458 54.987 12.1068 54.9805 12.0742C54.9805 12.0352 54.9805 12.0156 54.9805 12.0156L54.8438 11.7129C54.8177 11.6413 54.8014 11.5664 54.7949 11.4883C54.7949 11.4102 54.7884 11.3255 54.7754 11.2344C54.7624 11.1628 54.7526 11.0944 54.7461 11.0293C54.7396 10.9577 54.7266 10.8861 54.707 10.8145C54.6549 10.6908 54.5801 10.6159 54.4824 10.5898C54.3848 10.5573 54.2839 10.528 54.1797 10.502C54.0755 10.4759 53.9746 10.4368 53.877 10.3848C53.7793 10.3262 53.7012 10.209 53.6426 10.0332V9.93555C53.6426 9.87695 53.6491 9.81185 53.6621 9.74023C53.6751 9.66211 53.6979 9.61328 53.7305 9.59375C53.8021 9.55469 53.903 9.5319 54.0332 9.52539C54.1634 9.51888 54.2871 9.51562 54.4043 9.51562H54.7266C54.7331 9.51562 54.7591 9.52214 54.8047 9.53516C54.8503 9.54818 54.9023 9.5612 54.9609 9.57422C55.026 9.58724 55.0911 9.60026 55.1562 9.61328C55.2214 9.6263 55.2734 9.63281 55.3125 9.63281L56.0938 9.44727L56.9434 9.58398C57.0085 9.58398 57.0703 9.57422 57.1289 9.55469C57.1875 9.52865 57.2526 9.51562 57.3242 9.51562C57.4935 9.51562 57.6237 9.54818 57.7148 9.61328C57.806 9.67839 57.8516 9.79557 57.8516 9.96484C57.8516 10.1406 57.7962 10.2611 57.6855 10.3262C57.5749 10.3913 57.4414 10.4368 57.2852 10.4629C57.1354 10.4824 56.9824 10.502 56.8262 10.5215C56.6699 10.5345 56.5495 10.5801 56.4648 10.6582V10.7949C56.4648 10.8665 56.4746 10.9251 56.4941 10.9707C56.5202 11.0098 56.5462 11.0488 56.5723 11.0879C56.6048 11.127 56.6341 11.1693 56.6602 11.2148C56.6862 11.2539 56.7057 11.3125 56.7188 11.3906V12.0156C56.7253 12.0417 56.7513 12.1361 56.7969 12.2988C56.8424 12.4551 56.8945 12.6439 56.9531 12.8652C57.0182 13.0866 57.0866 13.3242 57.1582 13.5781C57.2363 13.8255 57.3047 14.0566 57.3633 14.2715C57.4284 14.4863 57.4805 14.6654 57.5195 14.8086C57.5651 14.9518 57.5911 15.0267 57.5977 15.0332C57.6432 15.0788 57.6758 15.1048 57.6953 15.1113C57.7148 15.1178 57.7376 15.1211 57.7637 15.1211C57.8092 15.1211 57.8483 15.1178 57.8809 15.1113C57.9134 15.1048 57.9557 15.0788 58.0078 15.0332C58.0078 15.0267 58.0111 15.0104 58.0176 14.9844C58.0306 14.9583 58.0436 14.9323 58.0566 14.9062C58.1022 14.7695 58.1608 14.6393 58.2324 14.5156C58.3105 14.3854 58.3887 14.2585 58.4668 14.1348C58.5449 14.0046 58.6198 13.8776 58.6914 13.7539C58.763 13.6302 58.8216 13.5 58.8672 13.3633C58.8737 13.3568 58.877 13.3372 58.877 13.3047C58.8835 13.2721 58.89 13.2396 58.8965 13.207C58.903 13.168 58.9062 13.1354 58.9062 13.1094C58.9128 13.0768 58.916 13.054 58.916 13.041C58.9746 12.8783 59.0299 12.7448 59.082 12.6406C59.1406 12.5365 59.1862 12.416 59.2188 12.2793L59.2676 11.8398C59.3132 11.7617 59.362 11.6868 59.4141 11.6152C59.4727 11.5436 59.5247 11.472 59.5703 11.4004C59.6224 11.3223 59.6647 11.2441 59.6973 11.166C59.7298 11.0879 59.7461 11.0098 59.7461 10.9316V10.8438C59.7331 10.694 59.6875 10.5833 59.6094 10.5117C59.5312 10.4401 59.4401 10.388 59.3359 10.3555C59.2383 10.3164 59.1374 10.2839 59.0332 10.2578C58.9355 10.2318 58.8639 10.1862 58.8184 10.1211L58.7598 9.89648C58.7598 9.7793 58.8053 9.69141 58.8965 9.63281L58.9355 9.58398C58.9421 9.55143 58.9648 9.52865 59.0039 9.51562C59.043 9.5026 59.1374 9.49609 59.2871 9.49609C59.3457 9.49609 59.3913 9.49609 59.4238 9.49609C59.4629 9.49609 59.4987 9.49935 59.5312 9.50586C59.5703 9.50586 59.6094 9.50911 59.6484 9.51562C59.694 9.51562 59.7526 9.51888 59.8242 9.52539C60.0391 9.52539 60.2181 9.51888 60.3613 9.50586C60.5046 9.48633 60.6413 9.47005 60.7715 9.45703H60.8105C60.8431 9.45703 60.9017 9.46354 60.9863 9.47656C61.0775 9.48958 61.1296 9.49609 61.1426 9.49609L61.6699 9.47656C61.722 9.47656 61.7708 9.48307 61.8164 9.49609C61.862 9.5026 61.8913 9.51237 61.9043 9.52539C61.9303 9.55794 61.9596 9.58073 61.9922 9.59375C62.0247 9.60026 62.0475 9.62305 62.0605 9.66211V9.7793C62.0605 9.90951 62.0443 10.0072 62.0117 10.0723C61.9792 10.1374 61.9499 10.1862 61.9238 10.2188C61.8717 10.2708 61.7904 10.3164 61.6797 10.3555C61.5755 10.3945 61.4616 10.4368 61.3379 10.4824C61.2142 10.528 61.097 10.5833 60.9863 10.6484C60.8757 10.707 60.7943 10.7786 60.7422 10.8633C60.612 11.0586 60.5013 11.2474 60.4102 11.4297C60.3255 11.6055 60.2441 11.7845 60.166 11.9668C60.0944 12.1426 60.0195 12.3216 59.9414 12.5039C59.8633 12.6797 59.7689 12.8652 59.6582 13.0605C59.6061 13.1712 59.5508 13.2786 59.4922 13.3828C59.4336 13.4805 59.3783 13.5814 59.3262 13.6855C59.2806 13.7897 59.2415 13.9004 59.209 14.0176C59.1829 14.1348 59.1699 14.2617 59.1699 14.3984L59.0137 14.584C59.0137 14.623 59.0072 14.6751 58.9941 14.7402C58.9811 14.8053 58.9648 14.8737 58.9453 14.9453C58.9258 15.0169 58.8997 15.0853 58.8672 15.1504C58.8411 15.209 58.8118 15.2513 58.7793 15.2773L58.6426 15.6289L58.3203 16.3223C58.2552 16.4525 58.2064 16.5632 58.1738 16.6543C58.1478 16.7454 58.1185 16.8333 58.0859 16.918C58.0534 17.0026 58.0143 17.0905 57.9688 17.1816C57.9232 17.2728 57.8548 17.3802 57.7637 17.5039C57.6986 17.6081 57.653 17.709 57.627 17.8066C57.6074 17.9043 57.5814 17.9922 57.5488 18.0703C57.5228 18.1419 57.474 18.2005 57.4023 18.2461C57.3372 18.2917 57.2266 18.3145 57.0703 18.3145C56.9466 18.3145 56.8522 18.3047 56.7871 18.2852C56.7285 18.2656 56.6797 18.2363 56.6406 18.1973C56.6081 18.1582 56.5755 18.1094 56.543 18.0508C56.5104 17.9857 56.4616 17.9108 56.3965 17.8262C56.4095 17.7741 56.416 17.7285 56.416 17.6895C56.416 17.6439 56.416 17.5983 56.416 17.5527C56.416 17.403 56.3997 17.2598 56.3672 17.123C56.3346 16.9863 56.2956 16.8529 56.25 16.7227C56.2044 16.5924 56.1621 16.4622 56.123 16.332C56.084 16.1953 56.0579 16.0521 56.0449 15.9023L55.9766 15.1699C55.9635 15.1048 55.931 15.0039 55.8789 14.8672C55.8268 14.724 55.765 14.5807 55.6934 14.4375C55.6283 14.2943 55.5599 14.1706 55.4883 14.0664C55.4167 13.9557 55.3548 13.9004 55.3027 13.9004C55.2246 13.9004 55.153 13.9232 55.0879 13.9688C55.0293 14.0078 54.9935 14.0469 54.9805 14.0859C54.9674 14.1055 54.9414 14.1576 54.9023 14.2422C54.8633 14.3268 54.8438 14.3822 54.8438 14.4082C54.7721 14.7077 54.6777 14.9714 54.5605 15.1992C54.4499 15.4206 54.3294 15.6549 54.1992 15.9023L54.0137 16.166C54.0137 16.179 54.0072 16.2051 53.9941 16.2441C53.9876 16.2832 53.9779 16.3092 53.9648 16.3223C53.9648 16.3288 53.9616 16.3548 53.9551 16.4004C53.9486 16.4395 53.9388 16.485 53.9258 16.5371C53.9193 16.5827 53.9095 16.6283 53.8965 16.6738C53.89 16.7129 53.8835 16.7357 53.877 16.7422C53.877 16.7487 53.8672 16.765 53.8477 16.791C53.8346 16.8171 53.8151 16.8464 53.7891 16.8789C53.7695 16.9049 53.75 16.931 53.7305 16.957C53.7109 16.9766 53.6979 16.9896 53.6914 16.9961C53.6263 17.1458 53.5807 17.3086 53.5547 17.4844C53.5352 17.6602 53.4993 17.8229 53.4473 17.9727C53.4017 18.1224 53.3236 18.2493 53.2129 18.3535C53.1022 18.4512 52.9297 18.5 52.6953 18.5C52.5846 18.5 52.4902 18.4837 52.4121 18.4512C52.3405 18.4186 52.2949 18.3275 52.2754 18.1777L52.1289 17.0449ZM62.3242 14.2227C62.3242 14.1901 62.3307 14.1283 62.3438 14.0371C62.3568 13.9395 62.3698 13.8385 62.3828 13.7344C62.4023 13.6237 62.4154 13.5195 62.4219 13.4219C62.4349 13.3242 62.4414 13.2591 62.4414 13.2266C62.4674 12.9141 62.5358 12.5951 62.6465 12.2695C62.7637 11.944 62.9102 11.6315 63.0859 11.332C63.2617 11.026 63.4635 10.7461 63.6914 10.4922C63.9258 10.2383 64.1797 10.0234 64.4531 9.84766C64.4596 9.83464 64.4922 9.81185 64.5508 9.7793C64.6159 9.74674 64.6842 9.71419 64.7559 9.68164C64.8275 9.64909 64.8958 9.61654 64.9609 9.58398C65.026 9.55143 65.0651 9.52865 65.0781 9.51562C65.1237 9.49609 65.1823 9.46354 65.2539 9.41797C65.332 9.36589 65.4102 9.31706 65.4883 9.27148C65.5664 9.2194 65.6445 9.17383 65.7227 9.13477C65.8008 9.0957 65.8724 9.07617 65.9375 9.07617C65.9961 9.07617 66.0417 9.08268 66.0742 9.0957C66.1133 9.10872 66.1589 9.12826 66.2109 9.1543C66.3216 9.14128 66.4258 9.13151 66.5234 9.125C66.6276 9.11198 66.7318 9.10547 66.8359 9.10547C66.9466 9.10547 67.0508 9.11198 67.1484 9.125C67.2461 9.13151 67.3503 9.14128 67.4609 9.1543C67.4609 9.1543 67.474 9.16081 67.5 9.17383C67.526 9.18034 67.5553 9.1901 67.5879 9.20312C67.6204 9.21615 67.653 9.22917 67.6855 9.24219C67.7181 9.25521 67.7441 9.26497 67.7637 9.27148C67.7832 9.27799 67.8223 9.29753 67.8809 9.33008C67.9395 9.35612 68.0046 9.38867 68.0762 9.42773C68.1478 9.4668 68.2161 9.5026 68.2812 9.53516C68.3464 9.5612 68.3919 9.57747 68.418 9.58398C68.418 9.59049 68.4408 9.60026 68.4863 9.61328C68.5319 9.6263 68.5612 9.63281 68.5742 9.63281L68.9648 9.84766L69.8438 10.6484C69.8698 10.681 69.9089 10.7689 69.9609 10.9121C70.0195 11.0488 70.0749 11.2018 70.127 11.3711C70.1855 11.5339 70.2344 11.6901 70.2734 11.8398C70.319 11.9896 70.3418 12.0872 70.3418 12.1328C70.3418 12.224 70.3158 12.2988 70.2637 12.3574C70.2116 12.4095 70.1497 12.4551 70.0781 12.4941C70.0065 12.5267 69.9284 12.5527 69.8438 12.5723C69.7656 12.5853 69.6973 12.5951 69.6387 12.6016H69.5996C69.5345 12.6081 69.4271 12.6146 69.2773 12.6211C69.1341 12.6276 68.9811 12.6341 68.8184 12.6406C68.6621 12.6406 68.5124 12.6439 68.3691 12.6504C68.2324 12.6504 68.138 12.6504 68.0859 12.6504C68.0143 12.6829 67.9492 12.7025 67.8906 12.709C67.8385 12.7155 67.7832 12.7188 67.7246 12.7188L67.0312 12.6504C66.901 12.6504 66.7643 12.6732 66.6211 12.7188C66.4844 12.7643 66.3509 12.7871 66.2207 12.7871C66.1361 12.7871 66.0514 12.7578 65.9668 12.6992C65.8887 12.6341 65.8008 12.6016 65.7031 12.6016C65.6901 12.6016 65.6543 12.6178 65.5957 12.6504C65.5436 12.6764 65.5046 12.6895 65.4785 12.6895L64.7363 12.6406C64.6322 12.6406 64.5345 12.6602 64.4434 12.6992C64.3522 12.7383 64.248 12.8066 64.1309 12.9043C64.1113 13.0736 64.0983 13.2233 64.0918 13.3535C64.0853 13.4772 64.082 13.6172 64.082 13.7734C64.082 13.9102 64.0885 14.0208 64.1016 14.1055C64.1211 14.1901 64.1471 14.2715 64.1797 14.3496C64.2122 14.4212 64.2513 14.4961 64.2969 14.5742C64.3424 14.6458 64.3945 14.737 64.4531 14.8477L64.5508 15.0332C64.7201 15.4043 64.9382 15.7038 65.2051 15.9316C65.472 16.1595 65.8171 16.3385 66.2402 16.4688C66.2402 16.5013 66.2858 16.5339 66.377 16.5664C66.4746 16.5924 66.582 16.612 66.6992 16.625C66.8359 16.651 66.9922 16.6673 67.168 16.6738C67.3828 16.6738 67.6042 16.6608 67.832 16.6348C68.0599 16.6087 68.2812 16.5664 68.4961 16.5078C68.7109 16.4492 68.9128 16.3711 69.1016 16.2734C69.2969 16.1758 69.4629 16.0553 69.5996 15.9121H69.7559C69.834 15.9121 69.8861 15.9251 69.9121 15.9512C69.9447 15.9707 69.9772 16.0326 70.0098 16.1367C69.9902 16.3255 69.9609 16.4948 69.9219 16.6445C69.8893 16.7878 69.8405 16.918 69.7754 17.0352C69.7168 17.1523 69.6387 17.263 69.541 17.3672C69.4434 17.4648 69.3164 17.5658 69.1602 17.6699C69.1081 17.709 69.0592 17.7383 69.0137 17.7578C68.9681 17.7708 68.9258 17.7839 68.8867 17.7969C68.8477 17.8099 68.8053 17.8294 68.7598 17.8555C68.7207 17.8815 68.6751 17.9271 68.623 17.9922L67.5781 18.5195L67.4609 18.5L66.7285 18.6172C66.1816 18.6172 65.6901 18.5391 65.2539 18.3828C64.8177 18.2266 64.4271 18.0052 64.082 17.7188C63.7435 17.4258 63.4473 17.0775 63.1934 16.6738C62.946 16.2702 62.7344 15.8242 62.5586 15.3359C62.5 15.1602 62.4642 14.9811 62.4512 14.7988C62.4382 14.61 62.3958 14.418 62.3242 14.2227ZM64.248 11.5566C64.248 11.5892 64.2513 11.638 64.2578 11.7031C64.2708 11.7682 64.2871 11.8333 64.3066 11.8984C64.3262 11.9635 64.349 12.0221 64.375 12.0742C64.401 12.1263 64.4271 12.1556 64.4531 12.1621H64.7559L66.0547 11.957L66.8848 12.0254C67.028 12.0254 67.1549 12.0124 67.2656 11.9863C67.3828 11.9603 67.5098 11.931 67.6465 11.8984C67.7702 11.8789 67.8743 11.8626 67.959 11.8496C68.0501 11.8301 68.1217 11.7975 68.1738 11.752C68.2324 11.7064 68.2747 11.6478 68.3008 11.5762C68.3268 11.498 68.3398 11.3906 68.3398 11.2539C68.3398 11.026 68.278 10.8275 68.1543 10.6582C68.0306 10.4889 67.8743 10.349 67.6855 10.2383C67.5033 10.1211 67.3014 10.0365 67.0801 9.98438C66.8652 9.92578 66.6634 9.89648 66.4746 9.89648C66.429 9.89648 66.3639 9.90951 66.2793 9.93555C66.1947 9.95508 66.097 9.98438 65.9863 10.0234C65.8822 10.056 65.7715 10.0951 65.6543 10.1406C65.5436 10.1797 65.4395 10.2253 65.3418 10.2773C65.2507 10.3229 65.1693 10.3685 65.0977 10.4141C65.026 10.4531 64.9805 10.4889 64.9609 10.5215L64.7559 10.9609C64.7168 11.0065 64.668 11.0488 64.6094 11.0879C64.5508 11.127 64.4922 11.1693 64.4336 11.2148C64.3815 11.2604 64.3359 11.3125 64.2969 11.3711C64.2643 11.4232 64.248 11.485 64.248 11.5566ZM71.4746 17.9043C71.4746 17.8522 71.5072 17.8164 71.5723 17.7969C71.6439 17.7708 71.696 17.7415 71.7285 17.709C71.8001 17.6309 71.8815 17.5755 71.9727 17.543C72.0703 17.5104 72.1387 17.4844 72.1777 17.4648C72.2298 17.4323 72.2656 17.3932 72.2852 17.3477C72.3047 17.2956 72.3503 17.2565 72.4219 17.2305L72.6562 17.1523C72.6953 17.1523 72.7279 17.123 72.7539 17.0645C72.7799 17.0059 72.7962 16.9733 72.8027 16.9668C72.7962 16.9342 72.793 16.8789 72.793 16.8008C72.793 16.7227 72.793 16.6478 72.793 16.5762C72.793 16.485 72.793 16.4036 72.793 16.332C72.793 16.2539 72.7962 16.1888 72.8027 16.1367L72.8613 15.8438V14.3398C72.8613 14.3268 72.8646 14.2975 72.8711 14.252C72.8776 14.2064 72.8841 14.1576 72.8906 14.1055C72.8971 14.0534 72.9036 14.0046 72.9102 13.959C72.9167 13.9134 72.9232 13.8841 72.9297 13.8711V13.8027C72.9232 13.7637 72.9167 13.7051 72.9102 13.627C72.9036 13.5423 72.8971 13.4609 72.8906 13.3828C72.8841 13.2982 72.8776 13.2233 72.8711 13.1582C72.8646 13.0931 72.8613 13.054 72.8613 13.041C72.8548 13.0215 72.8483 12.9889 72.8418 12.9434C72.8353 12.8978 72.8288 12.849 72.8223 12.7969C72.8158 12.7448 72.8092 12.696 72.8027 12.6504C72.8027 12.6048 72.8027 12.5723 72.8027 12.5527C72.7832 12.4616 72.7507 12.3737 72.7051 12.2891C72.6595 12.2044 72.6074 12.1263 72.5488 12.0547C72.4902 11.9766 72.4284 11.9017 72.3633 11.8301C72.2982 11.752 72.2363 11.6771 72.1777 11.6055C72.1712 11.6055 72.1484 11.5827 72.1094 11.5371C72.0703 11.485 72.0508 11.4525 72.0508 11.4395L71.4746 10.9023L71.9434 10.4238C71.9564 10.4173 71.9824 10.4043 72.0215 10.3848C72.0671 10.3652 72.1126 10.3457 72.1582 10.3262C72.2103 10.3001 72.2591 10.2773 72.3047 10.2578C72.3568 10.2383 72.3958 10.2253 72.4219 10.2188C72.4349 10.2057 72.4609 10.196 72.5 10.1895C72.5456 10.1764 72.5911 10.1667 72.6367 10.1602C72.6888 10.1536 72.7344 10.1504 72.7734 10.1504C72.819 10.1439 72.8483 10.1406 72.8613 10.1406C72.985 10.1016 73.0957 10.0495 73.1934 9.98438C73.2975 9.91276 73.3984 9.8444 73.4961 9.7793C73.5938 9.70768 73.6914 9.64583 73.7891 9.59375C73.8932 9.54167 74.0104 9.51562 74.1406 9.51562H74.2969C74.3034 9.52214 74.3392 9.55794 74.4043 9.62305C74.4694 9.68164 74.5182 9.72396 74.5508 9.75C74.5964 9.82161 74.6191 9.91276 74.6191 10.0234C74.6191 10.1276 74.6224 10.2318 74.6289 10.3359C74.6354 10.4336 74.6582 10.5182 74.6973 10.5898C74.7363 10.6615 74.821 10.6973 74.9512 10.6973C74.9707 10.6973 74.9902 10.6973 75.0098 10.6973C75.0358 10.6973 75.0488 10.6908 75.0488 10.6777C75.0749 10.6712 75.1107 10.6582 75.1562 10.6387C75.2018 10.6126 75.2474 10.5833 75.293 10.5508C75.3451 10.5182 75.3906 10.4857 75.4297 10.4531C75.4753 10.4206 75.5078 10.3945 75.5273 10.375L75.9277 10.0723C75.9408 10.0592 75.9831 10.0299 76.0547 9.98438C76.1263 9.93229 76.1751 9.89323 76.2012 9.86719C76.2077 9.86719 76.2337 9.86719 76.2793 9.86719C76.3249 9.86068 76.3704 9.85742 76.416 9.85742C76.4681 9.85091 76.5169 9.8444 76.5625 9.83789C76.6081 9.83138 76.6406 9.82487 76.6602 9.81836C76.6667 9.81836 76.6862 9.81185 76.7188 9.79883C76.7578 9.78581 76.7969 9.77279 76.8359 9.75977C76.8815 9.74674 76.9206 9.73372 76.9531 9.7207C76.9857 9.70768 77.0052 9.70117 77.0117 9.70117H77.1191C77.2689 9.70117 77.3893 9.74674 77.4805 9.83789C77.5781 9.92904 77.666 10.0299 77.7441 10.1406C77.7897 10.1992 77.8158 10.2839 77.8223 10.3945C77.8353 10.4987 77.8581 10.5768 77.8906 10.6289C77.8906 10.6484 77.9004 10.668 77.9199 10.6875L77.959 10.7266C77.959 11.0391 77.9134 11.319 77.8223 11.5664C77.7376 11.8073 77.5911 12.0026 77.3828 12.1523C77.3242 12.1654 77.2559 12.1784 77.1777 12.1914C77.0996 12.1979 77.0345 12.2012 76.9824 12.2012C76.8457 12.2012 76.7448 12.1947 76.6797 12.1816C76.6146 12.1621 76.5658 12.1361 76.5332 12.1035C76.5007 12.071 76.4714 12.0286 76.4453 11.9766C76.4258 11.9245 76.39 11.8626 76.3379 11.791C76.2923 11.7324 76.237 11.6868 76.1719 11.6543C76.1133 11.6152 76.0547 11.5892 75.9961 11.5762C75.9375 11.5566 75.8822 11.5436 75.8301 11.5371C75.7845 11.5306 75.7552 11.5273 75.7422 11.5273L75.3223 11.459L74.9707 11.5566L74.8535 11.7129C74.821 11.7194 74.7754 11.752 74.7168 11.8105C74.6582 11.8626 74.5996 11.9245 74.541 11.9961C74.4889 12.0612 74.4434 12.1328 74.4043 12.2109C74.3652 12.2826 74.3457 12.3411 74.3457 12.3867L74.2969 13.0898L74.3457 13.3633V13.8711C74.3457 13.8841 74.349 13.9232 74.3555 13.9883C74.3685 14.0469 74.3815 14.0924 74.3945 14.125L74.3262 15.0039L74.3945 15.3359C74.3945 15.3815 74.3815 15.4271 74.3555 15.4727C74.3359 15.5182 74.3262 15.5768 74.3262 15.6484L74.3945 15.9805L74.3262 16.3418C74.3262 16.3483 74.3262 16.3581 74.3262 16.3711C74.3262 16.3841 74.3327 16.3906 74.3457 16.3906C74.3522 16.4297 74.3717 16.485 74.4043 16.5566C74.4434 16.6283 74.4824 16.7031 74.5215 16.7812C74.5671 16.8594 74.6061 16.9342 74.6387 17.0059C74.6777 17.071 74.7038 17.1198 74.7168 17.1523C74.7168 17.1589 74.7233 17.1719 74.7363 17.1914C74.7493 17.2109 74.7656 17.2207 74.7852 17.2207C74.8438 17.2533 74.8991 17.2956 74.9512 17.3477C75.0098 17.3997 75.0781 17.4388 75.1562 17.4648C75.2018 17.4844 75.2604 17.5039 75.332 17.5234C75.4036 17.5365 75.4785 17.5527 75.5566 17.5723C75.6413 17.5918 75.7227 17.6146 75.8008 17.6406C75.8854 17.6667 75.9635 17.6992 76.0352 17.7383C76.0742 17.7904 76.11 17.8522 76.1426 17.9238C76.1816 17.9954 76.2012 18.0736 76.2012 18.1582C76.2012 18.2298 76.1882 18.2819 76.1621 18.3145C76.1426 18.347 76.11 18.3796 76.0645 18.4121C76.0254 18.4382 75.9603 18.4512 75.8691 18.4512L75.5566 18.4805C75.446 18.4935 75.3451 18.5 75.2539 18.5C75.1693 18.5 75.0977 18.5 75.0391 18.5C74.987 18.5 74.9284 18.4935 74.8633 18.4805C74.8047 18.4609 74.7396 18.4512 74.668 18.4512C74.4857 18.4512 74.3132 18.474 74.1504 18.5195C73.9876 18.5716 73.8216 18.5977 73.6523 18.5977L73.2129 18.4512L72.5879 18.5977H72.4219L72.2852 18.5C72.2721 18.5 72.2363 18.4967 72.1777 18.4902C72.1191 18.4772 72.0345 18.4642 71.9238 18.4512C71.8978 18.4512 71.8717 18.4382 71.8457 18.4121C71.8262 18.4056 71.7936 18.3958 71.748 18.3828C71.709 18.3698 71.6439 18.3405 71.5527 18.2949C71.5007 18.2233 71.4746 18.1549 71.4746 18.0898V18.0605V17.9043ZM79.4434 23.1094C79.4434 23.0508 79.4434 22.9987 79.4434 22.9531C79.4499 22.9076 79.4694 22.849 79.502 22.7773C79.5345 22.6276 79.6029 22.5039 79.707 22.4062C79.8177 22.3086 79.9837 22.2272 80.2051 22.1621C80.2246 22.1556 80.2572 22.1458 80.3027 22.1328C80.3483 22.1263 80.3939 22.1198 80.4395 22.1133C80.485 22.1068 80.5241 22.1003 80.5566 22.0938C80.5957 22.0938 80.6185 22.0938 80.625 22.0938L80.9863 22.1621L81.2012 22.0938C81.2207 22.0938 81.25 22.0905 81.2891 22.084C81.3281 22.084 81.3835 22.084 81.4551 22.084C81.5723 22.084 81.6504 22.0807 81.6895 22.0742C81.735 22.0677 81.7708 22.0482 81.7969 22.0156C81.849 21.9375 81.8913 21.8691 81.9238 21.8105C81.9564 21.752 81.9824 21.6934 82.002 21.6348C82.028 21.5827 82.0475 21.5241 82.0605 21.459C82.0801 21.4004 82.0996 21.3255 82.1191 21.2344C82.1191 21.2279 82.1224 21.2051 82.1289 21.166C82.1354 21.1335 82.1419 21.0944 82.1484 21.0488C82.1549 21.0033 82.1615 20.9609 82.168 20.9219C82.1745 20.8828 82.181 20.8535 82.1875 20.834C82.1875 20.8079 82.2038 20.7591 82.2363 20.6875C82.2689 20.6159 82.3047 20.541 82.3438 20.4629C82.3828 20.3848 82.4186 20.3099 82.4512 20.2383C82.4902 20.1732 82.5195 20.1243 82.5391 20.0918L82.4707 19.6816C82.5423 19.5645 82.5977 19.457 82.6367 19.3594C82.6758 19.2617 82.6953 19.1445 82.6953 19.0078C82.6953 18.9883 82.6921 18.9622 82.6855 18.9297C82.679 18.9036 82.6758 18.8841 82.6758 18.8711C82.6758 18.819 82.6725 18.7539 82.666 18.6758C82.666 18.6042 82.6628 18.5358 82.6562 18.4707C82.6497 18.3991 82.6432 18.3372 82.6367 18.2852C82.6302 18.2331 82.627 18.2038 82.627 18.1973C82.627 18.1777 82.6139 18.1387 82.5879 18.0801C82.5618 18.015 82.5326 17.9466 82.5 17.875C82.474 17.8034 82.4447 17.735 82.4121 17.6699C82.3861 17.6048 82.373 17.5592 82.373 17.5332C82.3665 17.5202 82.3535 17.4811 82.334 17.416C82.3145 17.3509 82.2917 17.2826 82.2656 17.2109C82.2461 17.1328 82.2266 17.0612 82.207 16.9961C82.194 16.931 82.1875 16.8919 82.1875 16.8789L81.875 16.3516C81.875 16.3451 81.8717 16.319 81.8652 16.2734C81.8587 16.2279 81.8522 16.179 81.8457 16.127C81.8392 16.0749 81.8294 16.026 81.8164 15.9805C81.8099 15.9284 81.8034 15.8958 81.7969 15.8828C81.7969 15.8242 81.7904 15.7526 81.7773 15.668C81.7643 15.5768 81.7546 15.5312 81.748 15.5312C81.7415 15.5117 81.722 15.4857 81.6895 15.4531C81.6634 15.4206 81.6309 15.388 81.5918 15.3555C81.5592 15.3229 81.5267 15.2936 81.4941 15.2676C81.4616 15.2415 81.4453 15.2253 81.4453 15.2188L81.3086 14.8672L80.9863 14.4082L80.625 13.4805C80.6185 13.4674 80.599 13.4316 80.5664 13.373C80.5404 13.3079 80.5273 13.2721 80.5273 13.2656C80.5143 13.2526 80.4948 13.2363 80.4688 13.2168C80.4427 13.1908 80.4297 13.1712 80.4297 13.1582C80.4232 13.1517 80.4167 13.1224 80.4102 13.0703C80.4036 13.0182 80.3971 12.9629 80.3906 12.9043C80.3906 12.8457 80.3874 12.7936 80.3809 12.748C80.3809 12.696 80.3809 12.6634 80.3809 12.6504C80.3548 12.5462 80.3158 12.4355 80.2637 12.3184C80.2116 12.1947 80.1562 12.0742 80.0977 11.957C80.0391 11.8333 79.9772 11.7129 79.9121 11.5957C79.8535 11.4785 79.8014 11.3711 79.7559 11.2734C79.7559 11.2604 79.7493 11.2279 79.7363 11.1758C79.7233 11.1172 79.7103 11.0814 79.6973 11.0684C79.6973 11.0488 79.681 11.0228 79.6484 10.9902C79.6224 10.9512 79.5931 10.9251 79.5605 10.9121C79.3717 10.7624 79.1699 10.6452 78.9551 10.5605C78.7467 10.4759 78.5286 10.3783 78.3008 10.2676L78.2129 10.1406C78.1868 10.0885 78.1478 10.0495 78.0957 10.0234C78.0371 9.9974 78.0078 9.96159 78.0078 9.91602C78.0078 9.68815 78.0501 9.54167 78.1348 9.47656C78.2129 9.41146 78.3138 9.37891 78.4375 9.37891C78.5352 9.37891 78.6296 9.39518 78.7207 9.42773C78.8184 9.46029 78.9193 9.50586 79.0234 9.56445C79.043 9.56445 79.082 9.5612 79.1406 9.55469C79.1992 9.54818 79.2676 9.54492 79.3457 9.54492C79.4173 9.54492 79.4857 9.54818 79.5508 9.55469C79.6224 9.5612 79.6712 9.56445 79.6973 9.56445L79.9512 9.66211H80.2051C80.2116 9.66211 80.2376 9.65885 80.2832 9.65234C80.3353 9.63932 80.3874 9.62956 80.4395 9.62305C80.498 9.61003 80.5501 9.60026 80.5957 9.59375C80.6413 9.58073 80.6706 9.57096 80.6836 9.56445C80.7227 9.54492 80.7747 9.52865 80.8398 9.51562C80.9115 9.49609 80.9798 9.47982 81.0449 9.4668C81.11 9.45378 81.1654 9.44401 81.2109 9.4375C81.263 9.43099 81.2956 9.42773 81.3086 9.42773H81.748L82.0117 9.37891C82.0703 9.37891 82.1387 9.39193 82.2168 9.41797C82.3014 9.4375 82.3763 9.4668 82.4414 9.50586C82.513 9.54492 82.5716 9.59049 82.6172 9.64258C82.6693 9.68815 82.6953 9.73372 82.6953 9.7793C82.6953 9.83138 82.6888 9.90951 82.6758 10.0137C82.6628 10.1113 82.6335 10.1862 82.5879 10.2383C82.4837 10.349 82.373 10.4271 82.2559 10.4727C82.1452 10.5182 82.0638 10.5475 82.0117 10.5605L81.8457 10.6094C81.8001 10.6289 81.748 10.6354 81.6895 10.6289C81.6374 10.6159 81.5885 10.6322 81.543 10.6777C81.5495 10.7298 81.5625 10.7949 81.582 10.873C81.6016 10.9447 81.6243 11.0163 81.6504 11.0879C81.6764 11.1595 81.6992 11.2246 81.7188 11.2832C81.7383 11.3353 81.748 11.3646 81.748 11.3711C81.7546 11.4362 81.7708 11.4948 81.7969 11.5469C81.8294 11.599 81.862 11.651 81.8945 11.7031C81.9271 11.7552 81.9596 11.8073 81.9922 11.8594C82.0247 11.9115 82.0508 11.9668 82.0703 12.0254L82.1875 12.6504C82.2005 12.7415 82.2331 12.8294 82.2852 12.9141C82.3372 12.9922 82.3926 13.0703 82.4512 13.1484C82.5098 13.2201 82.5684 13.2982 82.627 13.3828C82.6855 13.4609 82.7246 13.5456 82.7441 13.6367C82.7441 13.6432 82.7441 13.6725 82.7441 13.7246C82.7507 13.7767 82.7539 13.832 82.7539 13.8906C82.7604 13.9492 82.7669 14.0046 82.7734 14.0566C82.7799 14.1087 82.7865 14.138 82.793 14.1445C82.793 14.151 82.8125 14.1836 82.8516 14.2422C82.8906 14.3008 82.9167 14.3333 82.9297 14.3398C82.9362 14.3529 82.9525 14.3887 82.9785 14.4473C83.0046 14.5059 83.0273 14.5449 83.0469 14.5645L83.1934 14.8672C83.2064 14.9128 83.2292 14.9714 83.2617 15.043C83.2943 15.1081 83.3236 15.1406 83.3496 15.1406C83.3952 15.2122 83.444 15.2643 83.4961 15.2969C83.5547 15.3229 83.6068 15.3359 83.6523 15.3359C83.6849 15.3359 83.7305 15.3229 83.7891 15.2969C83.8477 15.2643 83.8932 15.2122 83.9258 15.1406C83.9453 15.1146 83.9681 15.0885 83.9941 15.0625C84.0462 15.0104 84.0853 14.9746 84.1113 14.9551L84.1309 14.8965C84.1374 14.8835 84.1439 14.8704 84.1504 14.8574C84.1569 14.8444 84.1602 14.8314 84.1602 14.8184C84.2383 14.623 84.3132 14.4245 84.3848 14.2227C84.4564 14.0208 84.528 13.8092 84.5996 13.5879C84.5996 13.5684 84.6061 13.526 84.6191 13.4609C84.6322 13.3893 84.6549 13.3405 84.6875 13.3145C84.6875 13.3079 84.6875 13.2884 84.6875 13.2559C84.694 13.2233 84.6973 13.1875 84.6973 13.1484C84.7038 13.1029 84.7103 13.0638 84.7168 13.0312C84.7233 12.9922 84.7298 12.9694 84.7363 12.9629L84.8828 12.5527C84.8893 12.5462 84.8958 12.5267 84.9023 12.4941C84.9089 12.4616 84.9154 12.429 84.9219 12.3965C84.9284 12.3574 84.9316 12.3249 84.9316 12.2988C84.9382 12.2663 84.9414 12.2435 84.9414 12.2305C84.9609 12.1654 84.9902 12.1003 85.0293 12.0352C85.0749 11.9701 85.1172 11.9082 85.1562 11.8496C85.1953 11.791 85.2311 11.7324 85.2637 11.6738C85.2962 11.6087 85.3125 11.5404 85.3125 11.4688C85.2995 11.4427 85.2799 11.4069 85.2539 11.3613C85.2344 11.3092 85.2181 11.2799 85.2051 11.2734V10.8633C85.2051 10.8503 85.179 10.8145 85.127 10.7559C85.0814 10.6973 85.0456 10.6615 85.0195 10.6484C84.9935 10.6354 84.9544 10.6191 84.9023 10.5996C84.8568 10.5736 84.8047 10.5508 84.7461 10.5312C84.6875 10.5117 84.6289 10.4954 84.5703 10.4824C84.5182 10.4629 84.4759 10.4499 84.4434 10.4434C84.3783 10.4434 84.3294 10.4336 84.2969 10.4141C84.2708 10.388 84.2546 10.375 84.248 10.375L83.9258 10.1406C83.8932 10.0495 83.877 9.97461 83.877 9.91602C83.877 9.83138 83.8932 9.75651 83.9258 9.69141C83.9583 9.61979 83.9974 9.54818 84.043 9.47656C84.1276 9.43099 84.2057 9.40169 84.2773 9.38867C84.3555 9.36914 84.4238 9.35938 84.4824 9.35938C84.541 9.35286 84.5964 9.34635 84.6484 9.33984C84.7005 9.33333 84.7461 9.31706 84.7852 9.29102L85.0195 9.26172C85.0326 9.26172 85.0684 9.26497 85.127 9.27148C85.1921 9.27148 85.2604 9.27474 85.332 9.28125C85.4036 9.28776 85.4688 9.29427 85.5273 9.30078C85.5924 9.30078 85.6315 9.30404 85.6445 9.31055L85.9668 9.37891C86.1165 9.37891 86.25 9.35612 86.3672 9.31055C86.4909 9.26497 86.6276 9.2194 86.7773 9.17383H87.002C87.002 9.16081 87.0312 9.15104 87.0898 9.14453C87.1484 9.13151 87.1908 9.125 87.2168 9.125C87.2168 9.11198 87.2233 9.10547 87.2363 9.10547C87.2559 9.10547 87.2721 9.10547 87.2852 9.10547C87.3438 9.10547 87.4219 9.11849 87.5195 9.14453C87.6237 9.17057 87.7246 9.20638 87.8223 9.25195C87.9199 9.29753 88.0046 9.34961 88.0762 9.4082C88.1478 9.4668 88.1836 9.52865 88.1836 9.59375C88.1836 9.67188 88.1608 9.72721 88.1152 9.75977C88.0697 9.79232 88.0241 9.83464 87.9785 9.88672L87.6074 10.1895C87.5293 10.2611 87.4512 10.3164 87.373 10.3555C87.2949 10.388 87.2135 10.4141 87.1289 10.4336C87.0508 10.4531 86.9661 10.4694 86.875 10.4824C86.7839 10.4954 86.6895 10.515 86.5918 10.541C86.4811 10.7103 86.3867 10.8828 86.3086 11.0586C86.237 11.2344 86.1589 11.4069 86.0742 11.5762C86.0742 11.6087 86.0677 11.651 86.0547 11.7031C86.0417 11.7487 86.0286 11.778 86.0156 11.791C86.0156 11.7975 86.0124 11.8171 86.0059 11.8496C86.0059 11.8757 86.0026 11.9082 85.9961 11.9473C85.9896 11.9798 85.9831 12.0124 85.9766 12.0449C85.9766 12.0775 85.9733 12.0938 85.9668 12.0938C85.9668 12.1068 85.9538 12.1296 85.9277 12.1621C85.9082 12.1947 85.8854 12.2337 85.8594 12.2793C85.8333 12.3184 85.8073 12.3574 85.7812 12.3965C85.7617 12.429 85.752 12.4486 85.752 12.4551V12.9629C85.7454 12.9694 85.7324 12.9922 85.7129 13.0312C85.6934 13.0638 85.6706 13.1029 85.6445 13.1484C85.625 13.1875 85.6022 13.2233 85.5762 13.2559C85.5566 13.2884 85.5404 13.3079 85.5273 13.3145C85.4362 13.4837 85.3288 13.666 85.2051 13.8613C85.0814 14.0566 84.9935 14.2585 84.9414 14.4668V14.8184C84.9414 14.8314 84.9284 14.8672 84.9023 14.9258C84.8828 14.9779 84.8665 15.0039 84.8535 15.0039C84.7819 15.1406 84.7363 15.2676 84.7168 15.3848C84.6973 15.502 84.6582 15.6159 84.5996 15.7266L84.3164 16.3027C84.2904 16.4329 84.2741 16.5664 84.2676 16.7031C84.2611 16.8398 84.2578 16.9798 84.2578 17.123C84.2578 17.2598 84.2546 17.3965 84.248 17.5332C84.2415 17.6699 84.2285 17.8066 84.209 17.9434C84.196 18.1061 84.1439 18.2656 84.0527 18.4219C83.9616 18.5781 83.8802 18.7279 83.8086 18.8711C83.7956 18.8841 83.776 18.9004 83.75 18.9199C83.7305 18.946 83.7207 18.9622 83.7207 18.9688C83.6947 19.0078 83.6686 19.0697 83.6426 19.1543C83.6296 19.1934 83.6165 19.2357 83.6035 19.2812C83.597 19.3203 83.5905 19.3822 83.584 19.4668C83.5775 19.5514 83.571 19.6393 83.5645 19.7305C83.5645 19.8216 83.5612 19.9062 83.5547 19.9844C83.5547 20.069 83.5547 20.1276 83.5547 20.1602C83.4896 20.2122 83.4408 20.2871 83.4082 20.3848C83.3822 20.4824 83.3594 20.5898 83.3398 20.707C83.3268 20.8242 83.3138 20.9382 83.3008 21.0488C83.2943 21.166 83.278 21.2637 83.252 21.3418L82.9785 21.6934C82.9655 21.7064 82.9525 21.7487 82.9395 21.8203C82.9329 21.8984 82.9297 21.9473 82.9297 21.9668C82.9102 21.9863 82.8874 22.0189 82.8613 22.0645C82.8353 22.1035 82.8027 22.1589 82.7637 22.2305C82.7246 22.3021 82.679 22.3997 82.627 22.5234C82.627 22.5299 82.6204 22.5495 82.6074 22.582C82.5944 22.6211 82.5781 22.6602 82.5586 22.6992C82.5391 22.7448 82.5195 22.7871 82.5 22.8262C82.487 22.8652 82.4772 22.888 82.4707 22.8945C82.4447 22.9857 82.4056 23.0443 82.3535 23.0703C82.3079 23.0964 82.2526 23.1387 82.1875 23.1973C82.1484 23.2298 82.1191 23.2559 82.0996 23.2754C82.0801 23.3014 82.0638 23.3242 82.0508 23.3438C82.0378 23.3633 82.0215 23.3828 82.002 23.4023C81.9889 23.4284 81.9661 23.4609 81.9336 23.5C81.8424 23.6172 81.7383 23.6855 81.6211 23.7051C81.5039 23.7311 81.3802 23.7637 81.25 23.8027L81.0547 23.959C80.9766 23.985 80.9017 23.998 80.8301 23.998C80.7585 24.0046 80.6901 24.0078 80.625 24.0078C80.5013 24.0078 80.3711 23.985 80.2344 23.9395C80.0977 23.9004 79.9707 23.8418 79.8535 23.7637C79.7363 23.6855 79.6387 23.5911 79.5605 23.4805C79.4824 23.3698 79.4434 23.2461 79.4434 23.1094Z" fill="#D21E6A"/>
</svg>
