<svg width="23" height="29" viewBox="0 0 23 29" fill="none" xmlns="http://www.w3.org/2000/svg">
<path d="M11.5 14.5C12.2563 14.5 12.9036 14.2307 13.4422 13.6922C13.9807 13.1536 14.25 12.5063 14.25 11.75C14.25 10.9938 13.9807 10.3464 13.4422 9.80781C12.9036 9.26927 12.2563 9 11.5 9C10.7438 9 10.0964 9.26927 9.55781 9.80781C9.01927 10.3464 8.75 10.9938 8.75 11.75C8.75 12.5063 9.01927 13.1536 9.55781 13.6922C10.0964 14.2307 10.7438 14.5 11.5 14.5ZM11.5 24.6063C14.2958 22.0396 16.3698 19.7078 17.7219 17.6109C19.074 15.5141 19.75 13.6521 19.75 12.025C19.75 9.52708 18.9536 7.48177 17.3609 5.88906C15.7682 4.29635 13.8146 3.5 11.5 3.5C9.18542 3.5 7.23177 4.29635 5.63906 5.88906C4.04635 7.48177 3.25 9.52708 3.25 12.025C3.25 13.6521 3.92604 15.5141 5.27813 17.6109C6.63021 19.7078 8.70417 22.0396 11.5 24.6063ZM11.5 28.25C7.81042 25.1104 5.05469 22.1943 3.23281 19.5016C1.41094 16.8089 0.5 14.3167 0.5 12.025C0.5 8.5875 1.60573 5.84896 3.81719 3.80938C6.02865 1.76979 8.58958 0.75 11.5 0.75C14.4104 0.75 16.9714 1.76979 19.1828 3.80938C21.3943 5.84896 22.5 8.5875 22.5 12.025C22.5 14.3167 21.5891 16.8089 19.7672 19.5016C17.9453 22.1943 15.1896 25.1104 11.5 28.25Z" fill="#D21E6A"/>
</svg>
